{
  "asset": { "version": "2.0", "generator": "SolProject asset script" },
  "scene": 0,
  "scenes": [ { "nodes": [0] } ],
  "nodes": [ { "mesh": 0, "name": "asteroid" } ],
  "meshes": [ {
    "name": "asteroid",
    "primitives": [ {
      "attributes": { "POSITION": 0, "NORMAL": 1, "TEXCOORD_0": 2 },
      "indices": 3
    } ]
  } ],
  "buffers": [ { "byteLength": 32640, "uri": "data:application/octet-stream;base64," } ],
  "bufferViews": [
    { "buffer": 0, "byteOffset": 0, "byteLength": 11520 },
    { "buffer": 0, "byteOffset": 11520, "byteLength": 11520 },
    { "buffer": 0, "byteOffset": 23040, "byteLength": 7680 },
    { "buffer": 0, "byteOffset": 30720, "byteLength": 1920 }
  ],
  "accessors": [
    { "bufferView": 0, "componentType": 5126, "count": 960, "type": "VEC3",
      "min": [-0.88261,-0.93068194,-0.9930186], "max": [0.9194313,1.1016827,1.0695491] },
    { "bufferView": 1, "componentType": 5126, "count": 960, "type": "VEC3" },
    { "bufferView": 2, "componentType": 5126, "count": 960, "type": "VEC2" },
    { "bufferView": 3, "componentType": 5123, "count": 960, "type": "SCALAR" }
  ]
}