{
  "asset": { "version": "2.0", "generator": "SolProject asset script" },
  "scene": 0,
  "scenes": [ { "nodes": [0] } ],
  "nodes": [ { "mesh": 0, "name": "cockpit" } ],
  "meshes": [ {
    "name": "cockpit",
    "primitives": [ {
      "attributes": { "POSITION": 0, "NORMAL": 1, "TEXCOORD_0": 2 },
      "indices": 3
    } ]
  } ],
  "buffers": [ { "byteLength": 14892, "uri": "data:application/octet-stream;base64," } ],
  "bufferViews": [
    { "buffer": 0, "byteOffset": 0, "byteLength": 5112 },
    { "buffer": 0, "byteOffset": 5112, "byteLength": 5112 },
    { "buffer": 0, "byteOffset": 10224, "byteLength": 3408 },
    { "buffer": 0, "byteOffset": 13632, "byteLength": 1260 }
  ],
  "accessors": [
    { "bufferView": 0, "componentType": 5126, "count": 426, "type": "VEC3",
      "min": [-1.03001,0.04,-6.95], "max": [1.03001,1.495,-4.55] },
    { "bufferView": 1, "componentType": 5126, "count": 426, "type": "VEC3" },
    { "bufferView": 2, "componentType": 5126, "count": 426, "type": "VEC2" },
    { "bufferView": 3, "componentType": 5123, "count": 630, "type": "SCALAR" }
  ]
}