{
  "asset": { "version": "2.0", "generator": "SolProject asset script" },
  "scene": 0,
  "scenes": [ { "nodes": [0] } ],
  "nodes": [ { "mesh": 0, "name": "ship" } ],
  "meshes": [ {
    "name": "ship",
    "primitives": [ {
      "attributes": { "POSITION": 0, "NORMAL": 1, "TEXCOORD_0": 2 },
      "indices": 3
    } ]
  } ],
  "buffers": [ { "byteLength": 1632, "uri": "data:application/octet-stream;base64," } ],
  "bufferViews": [
    { "buffer": 0, "byteOffset": 0, "byteLength": 576 },
    { "buffer": 0, "byteOffset": 576, "byteLength": 576 },
    { "buffer": 0, "byteOffset": 1152, "byteLength": 384 },
    { "buffer": 0, "byteOffset": 1536, "byteLength": 96 }
  ],
  "accessors": [
    { "bufferView": 0, "componentType": 5126, "count": 48, "type": "VEC3",
      "min": [-3.5,-1.7,-7], "max": [3.5,3.8,5] },
    { "bufferView": 1, "componentType": 5126, "count": 48, "type": "VEC3" },
    { "bufferView": 2, "componentType": 5126, "count": 48, "type": "VEC2" },
    { "bufferView": 3, "componentType": 5123, "count": 48, "type": "SCALAR" }
  ]
}