{
  "asset": { "version": "2.0", "generator": "SolProject asset script" },
  "scene": 0,
  "scenes": [ { "nodes": [0] } ],
  "nodes": [ { "mesh": 0, "name": "station" } ],
  "meshes": [ {
    "name": "station",
    "primitives": [ {
      "attributes": { "POSITION": 0, "NORMAL": 1, "TEXCOORD_0": 2 },
      "indices": 3
    } ]
  } ],
  "buffers": [ { "byteLength": 30376, "uri": "data:application/octet-stream;base64," } ],
  "bufferViews": [
    { "buffer": 0, "byteOffset": 0, "byteLength": 8988 },
    { "buffer": 0, "byteOffset": 8988, "byteLength": 8988 },
    { "buffer": 0, "byteOffset": 17976, "byteLength": 5992 },
    { "buffer": 0, "byteOffset": 23968, "byteLength": 6408 }
  ],
  "accessors": [
    { "bufferView": 0, "componentType": 5126, "count": 749, "type": "VEC3",
      "min": [-102,-62.75,-102], "max": [102,62.75,102] },
    { "bufferView": 1, "componentType": 5126, "count": 749, "type": "VEC3" },
    { "bufferView": 2, "componentType": 5126, "count": 749, "type": "VEC2" },
    { "bufferView": 3, "componentType": 5123, "count": 3204, "type": "SCALAR" }
  ]
}